<?xml version="1.0" standalone="no"?>
<!DOCTYPE svg PUBLIC "-//W3C//DTD SVG 20010904//EN"
 "http://www.w3.org/TR/2001/REC-SVG-20010904/DTD/svg10.dtd">
<svg version="1.0" xmlns="http://www.w3.org/2000/svg"
 width="260.000000pt" height="260.000000pt" viewBox="0 0 260.000000 260.000000"
 preserveAspectRatio="xMidYMid meet">
<metadata>
Created by potrace 1.14, written by Peter Selinger 2001-2017
</metadata>
<g transform="translate(0.000000,260.000000) scale(0.100000,-0.100000)"
fill="#000000" stroke="none">
<path d="M727 2154 c-569 -285 -582 -293 -552 -337 12 -17 1102 -567 1124
-567 6 0 263 126 572 280 l560 281 -3 32 c-3 32 -7 34 -553 309 -302 152 -561
277 -575 277 -14 0 -272 -124 -573 -275z m1531 -312 c1 -4 -214 -115 -478
-247 l-480 -239 -486 242 -485 243 486 243 486 243 477 -238 c262 -132 478
-242 480 -247z"/>
<path d="M188 1338 c-22 -19 -28 -44 -15 -62 16 -22 1105 -566 1131 -565 12 0
269 125 571 277 517 261 550 279 553 305 4 33 -13 57 -39 57 -11 0 -258 -119
-549 -265 -291 -146 -535 -265 -540 -265 -6 0 -249 119 -541 265 -291 146
-535 265 -542 265 -7 0 -20 -6 -29 -12z"/>
<path d="M186 797 c-12 -9 -17 -23 -14 -42 3 -29 26 -41 553 -307 303 -152
561 -277 575 -277 14 0 273 125 575 277 547 275 550 277 553 309 3 27 -1 35
-22 44 -23 11 -72 -11 -566 -258 l-540 -270 -537 268 c-296 148 -543 269 -549
269 -5 0 -18 -6 -28 -13z"/>
</g>
</svg>
